<svg id="Capa_1" data-name="Capa 1" xmlns="http://www.w3.org/2000/svg" viewBox="0 0 100 100"><defs><style>.cls-1{fill:#ff7e71;}.cls-2{fill:#001f30;}.cls-3{fill:#8ed0eb;}.cls-4{fill:#596470;}.cls-5{fill:#fff;opacity:0.25;}</style></defs><title>avt02</title><rect id="Background" class="cls-1" width="100" height="100"/><rect class="cls-2" x="24.36" y="6" width="47.8" height="90" rx="4.12" ry="4.12"/><rect class="cls-3" x="28.04" y="14.48" width="40.45" height="67.17" rx="2.75" ry="2.75"/><path class="cls-4" d="M51.82,11.86H37.21a1.12,1.12,0,0,1-1.12-1.12h0a1.12,1.12,0,0,1,1.12-1.12H51.82a1.12,1.12,0,0,1,1.12,1.12h0A1.12,1.12,0,0,1,51.82,11.86Z"/><circle class="cls-4" cx="59.02" cy="10.74" r="1.42"/><circle class="cls-4" cx="48.26" cy="88.43" r="4.9"/><rect class="cls-4" x="56.23" y="86.58" width="10.23" height="3.7" rx="1.1" ry="1.1"/><rect class="cls-4" x="30.06" y="86.58" width="10.23" height="3.7" rx="1.1" ry="1.1"/><polygon class="cls-5" points="44.44 14.48 28.04 30.89 28.04 43.96 57.52 14.48 44.44 14.48"/><polygon class="cls-5" points="68.49 46.79 33.62 81.66 43.29 81.66 68.49 56.46 68.49 46.79"/><path class="cls-5" d="M68.49,16.47A2,2,0,0,0,68,15.15L28,55.09V73.42L68.49,33Z"/></svg>