<svg id="Capa_1" data-name="Capa 1" xmlns="http://www.w3.org/2000/svg" viewBox="0 0 100 100"><defs><style>.cls-1{fill:#1b9baa;}.cls-2{fill:#ffd0ae;}.cls-3{opacity:0.1;}.cls-4{fill:#9dd6ff;}.cls-5{fill:#58595b;}.cls-6{fill:#f9f9f9;}.cls-7{opacity:0.2;}.cls-8{fill:#414042;}.cls-9{fill:#fff;}</style></defs><title>avt01</title><rect id="Background" class="cls-1" width="100" height="100"/><g id="Doctor"><path class="cls-2" d="M68.36,70.32c-14.54,0-11.3-7.13-12.28-14.27H44c-1,7.14,2.26,14.27-12.28,14.27-9.29,0-12.46,4.07-12.46,13v6a50,50,0,0,0,61.54,0v-6C80.82,74.4,77.65,70.32,68.36,70.32Z"/><path class="cls-3" d="M56.33,60.19a33.74,33.74,0,0,0-.25-3.75H44a33.44,33.44,0,0,0-.25,3.73,11.94,11.94,0,0,0,12.55,0Z"/><path class="cls-4" d="M68.36,70.32A29.15,29.15,0,0,1,63.53,70L50.06,71.44,36.58,70a29.15,29.15,0,0,1-4.83.35c-9.29,0-12.46,4.07-12.46,13v6a50,50,0,0,0,61.54,0v-6C80.82,74.4,77.65,70.32,68.36,70.32Z"/><path class="cls-5" d="M56.23,71.53H43.88l4.28,5.62L47,99.89c1,.06,2,.09,2.94.09s2.1,0,3.14-.1L52,77.15Z"/><path class="cls-6" d="M68.36,70.32A29.15,29.15,0,0,1,63.53,70L50.07,96.78,36.58,70a29.15,29.15,0,0,1-4.83.35c-9.29,0-12.46,4.07-12.46,13v6a50,50,0,0,0,61.54,0v-6C80.82,74.4,77.65,70.32,68.36,70.32Z"/><path class="cls-7" d="M48.16,77.15H52a5.39,5.39,0,0,1-3.8,0Z"/><polygon class="cls-4" points="43.31 64.85 42.39 64.85 36.53 69.91 42.82 78.81 50.05 71.44 43.31 64.85"/><polygon class="cls-4" points="56.82 64.85 57.72 64.85 63.58 69.91 57.29 78.81 50.05 71.44 56.82 64.85"/><ellipse class="cls-2" cx="35.44" cy="43.62" rx="2.7" ry="3.18"/><ellipse class="cls-2" cx="64.69" cy="43.62" rx="2.7" ry="3.18"/><path class="cls-2" d="M52.75,20.81H47.39c-7,0-12.76,8.27-12.76,15.32,0,0,.41,24.76,15.44,24.76S65.51,36.12,65.51,36.12C65.51,29.08,59.8,20.81,52.75,20.81Z"/><path class="cls-3" d="M64.6,36.69c-.61-3.17-4.94-4.52-6.49-11.45-3.38,9.9-20.21,10.21-21.69,11.45-1,.82-1,2.64-1,3.77a3.56,3.56,0,0,1,1-2.48c1.47-1.24,18.31-1.55,21.69-11.45C59.66,33.46,64,34.81,64.6,38a14.54,14.54,0,0,1,.24,1.94A12.82,12.82,0,0,0,64.6,36.69Z"/><path class="cls-8" d="M66,40.86c2.28-3.42,4.91-24.48-7.92-23.94-11.32-9.7-31.71,3.23-24,23.94l1.46.92s-.62-3.49.86-4.73,18.31-1.55,21.69-11.45C59.66,32.52,64,33.87,64.6,37a9.17,9.17,0,0,1,0,4.73Z"/><path class="cls-3" d="M42.82,79.59,50.06,72l7.24,7.56,6.87-9.52h0L63.53,70l-6.24,8.83-7.24-7.36-7.24,7.36L36.58,70l-.62.09h0Z"/><polygon class="cls-9" points="40.77 66.25 31.75 70.32 39.41 77.15 35.63 79.59 50.07 96.78 40.77 66.25"/><polygon class="cls-9" points="59.37 66.25 68.39 70.32 60.73 77.15 64.51 79.59 50.07 96.78 59.37 66.25"/><path class="cls-3" d="M68.39,70.32l-7.68,6.83.51.33,7.89-7.15Z"/><path class="cls-3" d="M31.68,70.32l7.68,6.83-.51.33L31,70.33Z"/><polygon class="cls-3" points="64.08 80.09 50.07 96.78 36.06 80.09 35.63 80.37 50.07 97.62 64.51 80.37 64.08 80.09"/></g></svg>