<svg id="Capa_1" data-name="Capa 1" xmlns="http://www.w3.org/2000/svg" viewBox="0 0 100 100"><defs><style>.cls-1{fill:#d83970;}.cls-2{fill:#096131;}.cls-3{fill:#043b1d;}.cls-4{fill:#0e8d48;}.cls-5{fill:#58eb33;}</style></defs><title>avt03</title><rect id="Background" class="cls-1" width="100" height="100"/><path class="cls-2" d="M64.46,97.22a3.65,3.65,0,0,1-1-.15l-24.2-7.2a3.64,3.64,0,0,1-2.44-4.52L58.28,13.07a3.63,3.63,0,0,1,4.52-2.44L87,17.83a3.63,3.63,0,0,1,2.44,4.52L67.94,94.63A3.65,3.65,0,0,1,64.46,97.22Z"/><path class="cls-3" d="M61.76,11.25h0a2.86,2.86,0,0,1,.82.12l24.2,7.2a2.85,2.85,0,0,1,1.92,3.55L67.19,94.4a2.85,2.85,0,0,1-3.55,1.92l-24.2-7.2a2.86,2.86,0,0,1-1.92-3.55L59,13.29a2.87,2.87,0,0,1,2.73-2m0-1.56a4.41,4.41,0,0,0-4.22,3.15L36,85.13a4.41,4.41,0,0,0,3,5.48l24.2,7.2a4.4,4.4,0,0,0,5.48-3L90.19,22.57a4.41,4.41,0,0,0-3-5.48L63,9.88a4.41,4.41,0,0,0-1.26-.18Z"/><path class="cls-4" d="M67,90.49,84.62,31.31l1.73-5.83a3.75,3.75,0,0,1-2.52-4.66l-20-6a3.75,3.75,0,0,1-4.66,2.52l-1.73,5.83L39.81,82.4a3.75,3.75,0,0,1,2.52,4.66l20,6A3.75,3.75,0,0,1,67,90.49Z"/><circle class="cls-2" cx="71.95" cy="26.51" r="5.42" transform="translate(26.02 87.91) rotate(-73.43)"/><circle class="cls-2" cx="55.38" cy="79.82" r="5.42" transform="translate(-36.92 110.14) rotate(-73.43)"/><circle class="cls-5" cx="71.95" cy="26.51" r="4.23" transform="translate(26.02 87.91) rotate(-73.43)"/><circle class="cls-5" cx="55.38" cy="79.82" r="4.23" transform="translate(-36.92 110.14) rotate(-73.43)"/><ellipse class="cls-2" cx="63.39" cy="52.92" rx="11.14" ry="15.05" transform="matrix(0.29, -0.96, 0.96, 0.29, -5.41, 98.58)"/><ellipse class="cls-5" cx="63.42" cy="52.82" rx="9.76" ry="13.53" transform="translate(-5.29 98.54) rotate(-73.43)"/><path class="cls-2" d="M61.85,51.53q.73-1,1.4-1.83a6.6,6.6,0,0,1,1.45-1.31,4.17,4.17,0,0,1,1.67-.64,4.65,4.65,0,0,1,2,.2,4.44,4.44,0,0,1,2.64,2,5.92,5.92,0,0,1,.72,3.59l2.09.62q0,.25-.09.76a6.77,6.77,0,0,1-.22,1,3.15,3.15,0,0,1-.82,1.47,1.69,1.69,0,0,1-1.66.13l-.34-.1a6.52,6.52,0,0,1-1.59,2.33,2,2,0,0,1-2,.46,2.15,2.15,0,0,1-1.06-.65,3.36,3.36,0,0,1-.59-1,6.12,6.12,0,0,0,1.09-1.34,8,8,0,0,0,.89-2,3.6,3.6,0,0,0,.18-1.8,1,1,0,0,0-.65-.79.79.79,0,0,0-.73.15,3.61,3.61,0,0,0-.75.87l-.85,1.24A10.36,10.36,0,0,1,61.59,58a4.41,4.41,0,0,1-3.66.33,4.48,4.48,0,0,1-2.66-2,6.07,6.07,0,0,1-.7-3.75L52.51,52q0-.25.09-.76a6.73,6.73,0,0,1,.22-1,3.14,3.14,0,0,1,.82-1.47,1.69,1.69,0,0,1,1.66-.13l.26.08a9.81,9.81,0,0,1,.84-1.59,5.37,5.37,0,0,1,1-1.14,3,3,0,0,1,1.11-.61,2.13,2.13,0,0,1,1.2,0,2,2,0,0,1,1.15.82,3.5,3.5,0,0,1,.53,1.2,7.33,7.33,0,0,0-1.51,1.48A6.44,6.44,0,0,0,58.76,51a3.2,3.2,0,0,0-.14,1.9,1.17,1.17,0,0,0,.75.79.92.92,0,0,0,.91-.18,5.61,5.61,0,0,0,.88-1Z"/><path class="cls-2" d="M62.41,94.63a5.68,5.68,0,0,1-.65,0L40.65,92.17a5.64,5.64,0,0,1-5-6.24L43.87,15a5.63,5.63,0,0,1,5.59-5,5.8,5.8,0,0,1,.65,0l21.11,2.43a5.64,5.64,0,0,1,5,6.24L68,89.64A5.63,5.63,0,0,1,62.41,94.63Z"/><path class="cls-3" d="M49.46,10.77h0a4.94,4.94,0,0,1,.56,0l21.11,2.43a4.86,4.86,0,0,1,4.27,5.38L67.22,89.55a4.85,4.85,0,0,1-4.82,4.3,4.94,4.94,0,0,1-.56,0L40.74,91.39A4.86,4.86,0,0,1,36.47,86l8.17-70.94a4.85,4.85,0,0,1,4.82-4.3m0-1.56a6.41,6.41,0,0,0-6.36,5.68L34.92,85.83a6.41,6.41,0,0,0,5.64,7.1l21.11,2.43a6.48,6.48,0,0,0,.74,0,6.41,6.41,0,0,0,6.36-5.68l8.17-70.94a6.41,6.41,0,0,0-5.64-7.1L50.2,9.26a6.48,6.48,0,0,0-.74,0Z"/><path class="cls-4" d="M66.14,87.72,73.2,26.38l.7-6a3.75,3.75,0,0,1-3.29-4.15L49.86,13.8a3.75,3.75,0,0,1-4.15,3.29l-.7,6L37.94,84.48a3.75,3.75,0,0,1,3.29,4.15L62,91A3.75,3.75,0,0,1,66.14,87.72Z"/><circle class="cls-2" cx="59.89" cy="23.86" r="5.42" transform="matrix(0.11, -0.99, 0.99, 0.11, 29.34, 80.62)"/><circle class="cls-2" cx="52.83" cy="79.23" r="5.42" transform="translate(-31.93 122.65) rotate(-83.43)"/><circle class="cls-5" cx="59.89" cy="23.86" r="4.23" transform="translate(29.34 80.62) rotate(-83.43)"/><circle class="cls-5" cx="52.83" cy="79.23" r="4.23" transform="translate(-31.93 122.65) rotate(-83.43)"/><ellipse class="cls-2" cx="56.04" cy="51.35" rx="11.14" ry="15.05" transform="translate(-1.38 101.15) rotate(-83.43)"/><ellipse class="cls-5" cx="56.05" cy="51.24" rx="9.76" ry="13.53" transform="translate(-1.27 101.07) rotate(-83.43)"/><path class="cls-2" d="M54.28,50.25q.54-1.13,1.06-2a6.59,6.59,0,0,1,1.2-1.55,4.18,4.18,0,0,1,1.53-.92,4.65,4.65,0,0,1,2-.16,4.44,4.44,0,0,1,2.94,1.48,5.92,5.92,0,0,1,1.33,3.41l2.17.25q0,.25,0,.77a6.75,6.75,0,0,1,0,1.05A3.14,3.14,0,0,1,66,54.13a1.69,1.69,0,0,1-1.61.41l-.35,0a6.52,6.52,0,0,1-1.17,2.57,2,2,0,0,1-1.88.8,2.16,2.16,0,0,1-1.16-.46,3.36,3.36,0,0,1-.75-.87,6.12,6.12,0,0,0,.84-1.5,8,8,0,0,0,.53-2.14,3.6,3.6,0,0,0-.13-1.81,1,1,0,0,0-.78-.66.78.78,0,0,0-.7.27,3.61,3.61,0,0,0-.59,1l-.62,1.37a10.36,10.36,0,0,1-2.5,3.64,4.41,4.41,0,0,1-3.55,1,4.48,4.48,0,0,1-3-1.51,6.07,6.07,0,0,1-1.34-3.58l-2.14-.25c0-.16,0-.42,0-.77a6.72,6.72,0,0,1,0-1.05,3.14,3.14,0,0,1,.55-1.59,1.69,1.69,0,0,1,1.61-.41l.27,0a9.79,9.79,0,0,1,.55-1.71,5.37,5.37,0,0,1,.77-1.3,2.94,2.94,0,0,1,1-.8,2.13,2.13,0,0,1,1.19-.19,2,2,0,0,1,1.27.61,3.49,3.49,0,0,1,.73,1.09,7.33,7.33,0,0,0-1.23,1.72,6.44,6.44,0,0,0-.7,2.32,3.2,3.2,0,0,0,.19,1.9,1.17,1.17,0,0,0,.88.64.92.92,0,0,0,.87-.33,5.6,5.6,0,0,0,.69-1.14Z"/><path class="cls-2" d="M38.24,94.08a3.63,3.63,0,0,1-3.62-3.42L30.11,15.38a3.63,3.63,0,0,1,3.41-3.84L58.73,10h.22a3.63,3.63,0,0,1,3.62,3.41l4.51,75.28a3.64,3.64,0,0,1-3.41,3.84L38.46,94.07Z"/><path class="cls-3" d="M58.95,10.8a2.85,2.85,0,0,1,2.84,2.68L66.3,88.76a2.86,2.86,0,0,1-2.68,3L38.42,93.29h-.17a2.86,2.86,0,0,1-2.84-2.68L30.89,15.34a2.86,2.86,0,0,1,2.68-3l25.21-1.51h.18m0-1.56h-.27L33.47,10.76a4.41,4.41,0,0,0-4.14,4.66l4.51,75.28a4.41,4.41,0,0,0,4.4,4.15h.27l25.21-1.51a4.41,4.41,0,0,0,4.14-4.66L63.35,13.39a4.41,4.41,0,0,0-4.4-4.15Z"/><path class="cls-4" d="M64.79,85.15,61.1,23.51l-.36-6.07a3.75,3.75,0,0,1-4-3.52L35.92,15.17a3.75,3.75,0,0,1-3.52,4l.36,6.07,3.69,61.64a3.75,3.75,0,0,1,4,3.52l20.85-1.25A3.75,3.75,0,0,1,64.79,85.15Z"/><circle class="cls-2" cx="47.55" cy="23.34" r="5.42" transform="translate(-1.31 2.89) rotate(-3.43)"/><circle class="cls-2" cx="50.22" cy="79.1" r="5.42" transform="translate(-4.64 3.14) rotate(-3.43)"/><circle class="cls-5" cx="47.55" cy="23.34" r="4.23" transform="translate(-1.31 2.88) rotate(-3.43)"/><circle class="cls-5" cx="50.22" cy="79.1" r="4.23" transform="translate(-4.64 3.14) rotate(-3.43)"/><ellipse class="cls-2" cx="48.54" cy="51.08" rx="15.05" ry="11.14" transform="translate(-2.97 2.99) rotate(-3.43)"/><ellipse class="cls-5" cx="48.53" cy="50.98" rx="13.53" ry="9.76" transform="translate(-2.96 2.99) rotate(-3.43)"/><path class="cls-2" d="M46.61,50.31q.33-1.21.69-2.2a6.6,6.6,0,0,1,.91-1.73,4.18,4.18,0,0,1,1.35-1.18,4.65,4.65,0,0,1,2-.51,4.44,4.44,0,0,1,3.15.95,5.92,5.92,0,0,1,1.9,3.13l2.18-.13q.07.24.18.75a6.77,6.77,0,0,1,.14,1,3.15,3.15,0,0,1-.26,1.66q-.33.61-1.51.68l-.35,0a6.52,6.52,0,0,1-.7,2.73,2,2,0,0,1-1.72,1.12,2.15,2.15,0,0,1-1.22-.25,3.35,3.35,0,0,1-.89-.73A6.11,6.11,0,0,0,53,54a8,8,0,0,0,.15-2.2,3.6,3.6,0,0,0-.44-1.76,1,1,0,0,0-.88-.51.79.79,0,0,0-.64.39A3.62,3.62,0,0,0,50.79,51l-.37,1.45a10.35,10.35,0,0,1-1.83,4,4.41,4.41,0,0,1-3.32,1.56,4.48,4.48,0,0,1-3.18-1,6.07,6.07,0,0,1-1.94-3.29L38,53.93q-.07-.24-.18-.75a6.72,6.72,0,0,1-.14-1,3.14,3.14,0,0,1,.27-1.66q.33-.61,1.51-.69l.27,0A9.78,9.78,0,0,1,40,48a5.36,5.36,0,0,1,.54-1.41,2.94,2.94,0,0,1,.83-1,2.13,2.13,0,0,1,1.14-.39,2,2,0,0,1,1.36.38,3.5,3.5,0,0,1,.91.95,7.32,7.32,0,0,0-.91,1.91,6.44,6.44,0,0,0-.29,2.41,3.21,3.21,0,0,0,.52,1.83,1.17,1.17,0,0,0,1,.48.92.92,0,0,0,.8-.48,5.59,5.59,0,0,0,.48-1.24Z"/><path class="cls-2" d="M37.79,96.31a3.62,3.62,0,0,1-3.53-2.79L16.75,20.16a3.64,3.64,0,0,1,2.69-4.38L44,9.92a3.66,3.66,0,0,1,.85-.1,3.62,3.62,0,0,1,3.53,2.79L65.89,86a3.64,3.64,0,0,1-2.69,4.38L38.64,96.21A3.66,3.66,0,0,1,37.79,96.31Z"/><path class="cls-3" d="M44.85,10.6h0a2.84,2.84,0,0,1,2.77,2.19L65.14,86.15A2.86,2.86,0,0,1,63,89.58L38.46,95.45a2.87,2.87,0,0,1-.67.08A2.84,2.84,0,0,1,35,93.34L17.51,20a2.86,2.86,0,0,1,2.11-3.44l24.56-5.86a2.88,2.88,0,0,1,.67-.08m0-1.56a4.42,4.42,0,0,0-1,.12L19.26,15A4.41,4.41,0,0,0,16,20.34L33.51,93.7A4.4,4.4,0,0,0,38.82,97L63.39,91.1a4.41,4.41,0,0,0,3.26-5.31L49.14,12.43A4.41,4.41,0,0,0,44.85,9Z"/><path class="cls-4" d="M63,82.85,48.68,22.79l-1.41-5.91a3.75,3.75,0,0,1-4.52-2.78L22.44,18.95a3.75,3.75,0,0,1-2.78,4.52l1.41,5.91L35.42,89.44a3.75,3.75,0,0,1,4.52,2.78l20.31-4.85A3.75,3.75,0,0,1,63,82.85Z"/><circle class="cls-2" cx="35.31" cy="24.97" r="5.42" transform="translate(-4.83 8.88) rotate(-13.43)"/><circle class="cls-2" cx="47.62" cy="79.42" r="5.42" transform="translate(-17.14 13.23) rotate(-13.43)"/><circle class="cls-5" cx="35.31" cy="24.97" r="4.23" transform="translate(-4.83 8.88) rotate(-13.43)"/><circle class="cls-5" cx="47.62" cy="79.42" r="4.23" transform="translate(-17.14 13.23) rotate(-13.43)"/><ellipse class="cls-2" cx="41.1" cy="52.12" rx="15.05" ry="11.14" transform="translate(-10.98 10.97) rotate(-13.43)"/><ellipse class="cls-5" cx="41.07" cy="52.02" rx="13.53" ry="9.76" transform="translate(-10.96 10.96) rotate(-13.43)"/><path class="cls-2" d="M39.07,51.69q.12-1.25.3-2.29a6.6,6.6,0,0,1,.6-1.86,4.17,4.17,0,0,1,1.12-1.39A4.65,4.65,0,0,1,43,45.3a4.44,4.44,0,0,1,3.27.38,5.92,5.92,0,0,1,2.42,2.75l2.13-.51q.11.22.31.7a6.75,6.75,0,0,1,.32,1,3.14,3.14,0,0,1,0,1.68q-.22.66-1.37.94l-.34.08a6.52,6.52,0,0,1-.22,2.81,2,2,0,0,1-1.5,1.4,2.16,2.16,0,0,1-1.24,0,3.36,3.36,0,0,1-1-.56,6.12,6.12,0,0,0,.27-1.7,8,8,0,0,0-.23-2.19A3.6,3.6,0,0,0,45,50.4a1,1,0,0,0-1-.35.79.79,0,0,0-.56.49,3.62,3.62,0,0,0-.21,1.13l-.11,1.5a10.35,10.35,0,0,1-1.1,4.27,4.41,4.41,0,0,1-3,2.12,4.48,4.48,0,0,1-3.3-.4,6.07,6.07,0,0,1-2.48-2.9l-2.1.5c-.07-.15-.18-.38-.31-.7a6.68,6.68,0,0,1-.32-1,3.14,3.14,0,0,1,0-1.68q.22-.66,1.37-.94l.26-.06a9.79,9.79,0,0,1-.07-1.8,5.37,5.37,0,0,1,.28-1.48A2.94,2.94,0,0,1,33.06,48a2.13,2.13,0,0,1,1.05-.58,2,2,0,0,1,1.41.14,3.5,3.5,0,0,1,1.06.77,7.32,7.32,0,0,0-.57,2,6.44,6.44,0,0,0,.13,2.42A3.21,3.21,0,0,0,37,54.49a1.17,1.17,0,0,0,1,.31.92.92,0,0,0,.7-.61A5.61,5.61,0,0,0,39,52.88Z"/></svg>