<svg xmlns="http://www.w3.org/2000/svg" viewBox="0 0 100 100"><defs><style>.cls-1{fill:#5b8799;}.cls-2{fill:#e8e8e8;}.cls-3{fill:#613f2c;}</style></defs><title>avt04</title><g id="Capa_2" data-name="Capa 2"><rect id="Background" class="cls-1" width="100" height="100"/></g><g id="Capa_1" data-name="Capa 1"><path class="cls-2" d="M82.7,76.21,56.34,47c-5.19-5.74-7.93-10.55-6.67-14.43L42,41.15l-9,6.57c4-.86,8.49,2.36,13.67,8.1L73,85a5.77,5.77,0,0,0,8.14.41l1.18-1.07A5.77,5.77,0,0,0,82.7,76.21ZM78.18,81.1l-.09.08A2.18,2.18,0,0,1,75,81.12l-1.93-2A2.18,2.18,0,0,1,73.13,76l.09-.08a2.18,2.18,0,0,1,3.09.06l1.93,2A2.19,2.19,0,0,1,78.18,81.1Z"/><path class="cls-3" d="M77.25,88h-.36a6.82,6.82,0,0,1-4.74-2.25L45.8,56.56c-5.41-6-9.42-8.46-12.63-7.77a1.09,1.09,0,0,1-.87-2l8.93-6.51,7.63-8.45a1.09,1.09,0,0,1,1.85,1.07c-1,3.13,1,7.37,6.45,13.36L83.51,75.48h0A6.87,6.87,0,0,1,83,85.16l-1.19,1.07A6.8,6.8,0,0,1,77.25,88ZM36.17,46.72c3.22.77,6.83,3.48,11.25,8.38L73.77,84.27a4.67,4.67,0,0,0,6.6.34l1.19-1.07a4.68,4.68,0,0,0,.34-6.6h0L55.53,47.77c-4.43-4.9-6.76-8.77-7.19-12.06l-5.57,6.17a1.08,1.08,0,0,1-.17.15ZM76.58,82.89h-.07a3.25,3.25,0,0,1-2.3-1l-1.93-2a3.28,3.28,0,0,1,.09-4.63l.08-.08a3.28,3.28,0,0,1,4.63.09l1.93,2a3.28,3.28,0,0,1-.09,4.63h0l-.09.08A3.25,3.25,0,0,1,76.58,82.89Zm1.6-1.79h0Zm-3.45-4.68a1.08,1.08,0,0,0-.76.31l-.09.08a1.09,1.09,0,0,0,0,1.55l1.93,2a1.09,1.09,0,0,0,1.54,0l.09-.09a1.09,1.09,0,0,0,0-1.54l-1.93-2a1.09,1.09,0,0,0-.77-.33Z"/><polygon class="cls-2" points="28.38 14.77 41.22 28.98 38.58 37.16 30.18 38.95 17.34 24.74 14.09 34.79 26.93 49.01 45.66 45 51.55 26.77 38.71 12.56 28.38 14.77"/><path class="cls-3" d="M26.93,50.1a1.09,1.09,0,0,1-.81-.36L13.28,35.52a1.09,1.09,0,0,1-.23-1.07L16.3,24.4a1.09,1.09,0,0,1,1.85-.4L30.57,37.75l7.16-1.53,2.25-7L27.57,15.5a1.09,1.09,0,0,1,.58-1.8l10.33-2.21a1.09,1.09,0,0,1,1,.34L52.36,26a1.09,1.09,0,0,1,.23,1.07L46.7,45.33a1.09,1.09,0,0,1-.81.73l-18.73,4ZM15.33,34.53l12,13.28,17.5-3.75,5.5-17-12-13.28-7.86,1.68L42,28.25a1.09,1.09,0,0,1,.23,1.07l-2.64,8.17a1.09,1.09,0,0,1-.81.73L30.41,40a1.09,1.09,0,0,1-1-.34L17.8,26.87Z"/></g></svg>