<svg id="Capa_1" data-name="Capa 1" xmlns="http://www.w3.org/2000/svg" xmlns:xlink="http://www.w3.org/1999/xlink" viewBox="0 0 1024 1024"><defs><style>.cls-1{fill:url(#Degradado_sin_nombre_21);}.cls-2{fill:#fff;}</style><linearGradient id="Degradado_sin_nombre_21" x1="68.08" y1="955.92" x2="955.92" y2="68.08" gradientUnits="userSpaceOnUse"><stop offset="0" stop-color="#0da5ff"/><stop offset="0.24" stop-color="#19c2ee"/><stop offset="0.56" stop-color="#26e3da"/><stop offset="0.82" stop-color="#2ef8ce"/><stop offset="1" stop-color="#31ffca"/></linearGradient><symbol id="Icono" data-name="Icono" viewBox="0 0 1024 1024"><path id="App_Icon_Placeholder" data-name="App Icon Placeholder" class="cls-1" d="M357,0H667C769.8,0,821.18,0,876.52,17.49a217.46,217.46,0,0,1,130,130C1024,202.83,1024,254.22,1024,357V667c0,102.8,0,154.19-17.5,209.53a217.43,217.43,0,0,1-130,130C821.18,1024,769.8,1024,667,1024H357c-102.79,0-154.18,0-209.51-17.5a217.43,217.43,0,0,1-130-130C0,821.18,0,769.79,0,667V357C0,254.22,0,202.83,17.5,147.48a217.46,217.46,0,0,1,130-130C202.82,0,254.2,0,357,0h0"/><path class="cls-2" d="M679.15,365V320.78c0-97.63-79.42-177-177-177s-177,79.42-177,177V365H192.26V741.27A110.65,110.65,0,0,0,302.92,851.92H701.28A110.65,110.65,0,0,0,811.93,741.27V365Zm-44.26,55.33a33.2,33.2,0,1,1-33.2,33.2A33.2,33.2,0,0,1,634.88,420.37ZM413.57,320.78a88.52,88.52,0,1,1,177,0V365h-177ZM336.12,453.56a33.2,33.2,0,1,1,33.2,33.2A33.2,33.2,0,0,1,336.12,453.56ZM495,732.91q-9.12,13.28-27.33,21.22t-44.25,7.94a168.45,168.45,0,0,1-43-5.47q-20.83-5.47-33.84-14.58l16.92-38a109.3,109.3,0,0,0,28.37,13A108,108,0,0,0,423.69,722q29.68,0,29.68-14.84,0-7.81-8.46-11.58t-27.2-7.94a259.36,259.36,0,0,1-34.36-9.5,57.79,57.79,0,0,1-23.69-16.27q-9.9-11.19-9.89-30.2a52.27,52.27,0,0,1,9.11-30.07q9.11-13.4,27.2-21.22t44.38-7.81a156.67,156.67,0,0,1,35.4,4,108.52,108.52,0,0,1,30.72,11.84L480.7,626.7q-26-14.06-50.5-14.06-15.36,0-22.39,4.56t-7,11.84q0,7.29,8.33,10.93t26.81,7.55a251.64,251.64,0,0,1,34.49,9.5,59.59,59.59,0,0,1,23.69,16.14q10,11.07,10,30.07A51.27,51.27,0,0,1,495,732.91ZM678.4,625H622.69V766.32H571.14V625h-56V584.1H678.4Z"/><text></text></symbol></defs><title>logo</title><g id="_1024" data-name="1024"><use id="_TU_ICONO_AQUÍ_" data-name="[TU ICONO AQUÍ]" width="1024" height="1024" transform="translate(0 0)" xlink:href="#Icono"/></g></svg>